<svg xmlns="http://www.w3.org/2000/svg" width="51.231" height="70.581" viewBox="0 0 51.231 70.581"><g transform="translate(-99.361 -45.79)"><path d="M113.966,70.118a14.375,14.375,0,0,0-2.533,7.54c-.648,7.052,6.835,16.409,7.351-3.974S134.13,47.408,134.13,47.408c-4.914,5.24-4.038,11.893-2.319,16.727,1.351,3.8,6.307,8.1,9.719,11.549,3.641,3.674,8.851,9.352,8.715,17.485-.351,21.441-19.986,22.82-19.986,22.82,24.37-18.075,1.936-39.612,1.936-39.612,5.287,5.511,3.769,16.02-2.064,19.741-4.334,2.761-10.968,3.546-12.446,10.894a7.712,7.712,0,0,0,4.449,8.977s-14.319,0-18.183-17.05c-3.108-13.684,6.4-25.028,10.015-28.821" transform="translate(0.344 0.073)" fill="#ff595a"/><path d="M111.054,69.5a14.367,14.367,0,0,0-2.533,7.538c-.648,7.054,6.835,16.411,7.351-3.973S131.218,46.79,131.218,46.79c-4.914,5.24-4.038,11.893-2.319,16.729,1.351,3.8,6.307,8.1,9.719,11.549,3.641,3.673,8.851,9.352,8.715,17.485-.351,21.44-19.986,22.819-19.986,22.819,24.37-18.075,1.936-39.61,1.936-39.61,5.287,5.51,3.767,16.02-2.064,19.739-4.334,2.763-10.969,3.547-12.448,10.894a7.712,7.712,0,0,0,4.45,8.977s-14.319,0-18.183-17.05c-3.108-13.684,6.4-25.028,10.015-28.819" transform="translate(0)" fill="none" stroke="#191919" stroke-linecap="round" stroke-linejoin="round" stroke-width="2"/></g></svg>