<svg xmlns="http://www.w3.org/2000/svg" width="79.493" height="82.5" viewBox="0 0 79.493 82.5"><g transform="translate(-424.737 -341.597)"><g transform="translate(428.572 343.53)"><g transform="translate(0 0)"><path d="M559.113,449.983l-.732-13.125a37.185,37.185,0,0,0-1.236-7.616c-1.638-6.045-9.665-9.812-12.086-10.822a39.608,39.608,0,0,1-12.395-8.075l-1.607-4.824,3.566-7.387h.407a2.7,2.7,0,0,0,2.7-2.7v-4.316a2.146,2.146,0,0,0-2.144-2.144l-.007-6.168a9.926,9.926,0,0,0-1.081-4.624c-1.385-2.632-5.007-6.981-13.218-6.991-7.37.045-11.069,3.537-12.878,6.46A10.164,10.164,0,0,0,506.931,383v5.977a2.139,2.139,0,0,0-2.117,2.135v4.32a2.7,2.7,0,0,0,2.7,2.7h.366l3.57,7.4-1.55,4.818a39.377,39.377,0,0,1-12.393,8.073c-2.42,1.01-10.448,4.777-12.086,10.822a37.169,37.169,0,0,0-1.236,7.623l-.732,13.117Z" transform="translate(-483.455 -371.196)" fill="#d7e3f3"/><path d="M1261.917,1511.826H1251.04a1.233,1.233,0,0,0-1.233,1.233v4.427h2.466v-3.194h8.411v3.194h2.466v-4.427A1.233,1.233,0,0,0,1261.917,1511.826Z" transform="translate(-1199.756 -1437.33)" fill="#d7e3f3"/></g></g><g transform="translate(426.022 342.708)"><g transform="translate(0 0)"><path d="M519.341,424.266a37.185,37.185,0,0,0-1.236-7.616c-1.638-6.045-9.665-9.812-12.086-10.822a39.607,39.607,0,0,1-12.395-8.075l-1.607-4.824,3.566-7.387h.407a2.7,2.7,0,0,0,2.7-2.7v-4.316a2.146,2.146,0,0,0-2.143-2.144l-.007-6.168a9.926,9.926,0,0,0-1.081-4.624c-1.385-2.633-5.007-6.981-13.218-6.991-7.37.045-11.07,3.537-12.878,6.46a10.164,10.164,0,0,0-1.467,5.346v5.977a2.139,2.139,0,0,0-2.117,2.135v4.32a2.7,2.7,0,0,0,2.7,2.7h.366l3.57,7.4-1.55,4.818a39.377,39.377,0,0,1-12.393,8.073c-2.42,1.01-10.448,4.777-12.086,10.822a37.173,37.173,0,0,0-1.236,7.623l-.732,14.423,2.462.125.732-14.415a34.792,34.792,0,0,1,1.154-7.111c.96-3.542,5.2-6.637,9.278-8.576a21.907,21.907,0,0,0,.065,8.18,6.252,6.252,0,0,0-3.466,6.736l.874,5.054a3.7,3.7,0,1,0,2.4-.585l-.848-4.9a3.78,3.78,0,0,1,7.44-1.342l.911,5.266a3.7,3.7,0,1,0,2.422-.483l-.9-5.212A6.264,6.264,0,0,0,460.5,416.3a19.508,19.508,0,0,1,.366-8.833,44.357,44.357,0,0,0,6.8-3.885l-1.563,7.956a1.233,1.233,0,0,0,.894,1.43l7.933,2.1,6.121,23.991a1.233,1.233,0,0,0,2.389,0l6.123-23.991,7.933-2.1a1.233,1.233,0,0,0,.893-1.43l-1.563-7.956a44.156,44.156,0,0,0,4.5,2.749,23.755,23.755,0,0,1,.43,11.02,4.835,4.835,0,1,0,2.4.578,26.32,26.32,0,0,0,.045-10.2c.286.126.575.252.869.375,4.451,1.858,9.586,5.248,10.655,9.191a34.809,34.809,0,0,1,1.154,7.1l.732,14.423,2.461-.125Zm-60.574,7.517a1.232,1.232,0,1,1-1.231-1.231A1.232,1.232,0,0,1,458.767,431.783Zm9.774-1.475a1.231,1.231,0,1,1-1.231-1.231A1.232,1.232,0,0,1,468.541,430.308Zm33.319-5.754a2.369,2.369,0,1,1,2.37-2.369A2.371,2.371,0,0,1,501.86,424.554Zm-12.5-18.663-7.116,7.231-7.114-7.231-1.9-7.447.895-2.781a10.63,10.63,0,0,0,16.2-.021l.936,2.811Zm-17.9-39.53c1.481-2.393,4.554-5.253,10.795-5.29h.125c6.534,0,9.533,3.08,10.9,5.674a7.431,7.431,0,0,1,.8,3.4,2.075,2.075,0,0,1-1.579-.052c-1.245-.614-1.893-2.659-2.038-3.4a1.238,1.238,0,0,0-1.036-.984,1.22,1.22,0,0,0-1.269.648c-1.905,3.655-4.458,5.981-7.589,6.914-4.286,1.279-8.617-.379-10.2-1.105v-1.76A7.7,7.7,0,0,1,471.455,366.361Zm-1.84,16.716h-1.139a.235.235,0,0,1-.236-.234v-3.988h.884a1.233,1.233,0,0,0,1.233-1.233v-2.763a18.978,18.978,0,0,0,6.821,1.36,13.777,13.777,0,0,0,11.79-6.437,5.759,5.759,0,0,0,2.421,2.52,4.338,4.338,0,0,0,2.681.37v4.951a1.233,1.233,0,0,0,1.233,1.233h.918v3.994a.227.227,0,0,1-.229.229h-1.18a1.233,1.233,0,0,0-1.11.7l-4.121,8.536a8.181,8.181,0,0,1-14.733,0l-4.121-8.536A1.233,1.233,0,0,0,469.615,383.076Zm-.872,27.806,1.877-9.559c.236-.2.455-.388.654-.565l2.955,11.58Zm13.5,22.891-5.9-23.134,5.024,5.106a1.234,1.234,0,0,0,1.758,0l5.025-5.106Zm13.5-22.892-5.486,1.456,2.955-11.579c.2.177.418.366.654.565Z" transform="translate(-444.415 -358.604)" fill="#fff"/><path d="M1222.877,1499.235H1212a1.233,1.233,0,0,0-1.233,1.233v4.427h2.466V1501.7h8.411v3.194h2.466v-4.427A1.233,1.233,0,0,0,1222.877,1499.235Z" transform="translate(-1160.716 -1424.739)" fill="#fff"/></g></g><g transform="translate(424.737 341.597)"><g transform="translate(0 0)"><g transform="translate(21.663 41.806)"><path d="M765.974,996.558l-8.632-2.291a1.233,1.233,0,0,1-.894-1.43l2.187-11.129,2.418.476-1.963,10,7.515,1.994Z" transform="translate(-756.425 -981.708)"/></g><g transform="translate(28.724 47.051)"><path d="M873.642,1072.466h0a1.231,1.231,0,0,1-.879-.369l-8.225-8.36,1.758-1.729,7.346,7.466,7.348-7.467,1.758,1.731-8.227,8.36A1.234,1.234,0,0,1,873.642,1072.466Z" transform="translate(-864.538 -1062.008)"/></g><g transform="translate(21.359)"><path d="M768.205,382.39a10.7,10.7,0,0,1-9.586-6.017l-3.784-7.838h-.366a2.7,2.7,0,0,1-2.7-2.7v-4.32a2.139,2.139,0,0,1,2.117-2.135V353.4a10.162,10.162,0,0,1,1.467-5.346c1.809-2.922,5.508-6.415,12.878-6.46,8.211.01,11.833,4.359,13.218,6.991a9.926,9.926,0,0,1,1.081,4.624l.007,6.168a2.146,2.146,0,0,1,2.143,2.144v4.316a2.7,2.7,0,0,1-2.7,2.7h-.407l-3.784,7.838A10.706,10.706,0,0,1,768.205,382.39Zm-13.972-20.544v3.989a.235.235,0,0,0,.236.234h1.139a1.233,1.233,0,0,1,1.11.7l4.121,8.536a8.181,8.181,0,0,0,14.733,0l4.121-8.536a1.233,1.233,0,0,1,1.11-.7h1.18a.227.227,0,0,0,.229-.229v-3.994H781.3a1.233,1.233,0,0,1-1.233-1.233v-7.4a7.46,7.46,0,0,0-.8-3.475c-1.363-2.594-4.362-5.674-10.9-5.674h-.125c-6.24.037-9.314,2.9-10.795,5.29a7.7,7.7,0,0,0-1.1,4.049v7.21a1.233,1.233,0,0,1-1.233,1.233Z" transform="translate(-751.767 -341.597)"/></g><g transform="translate(43.813 41.806)"><path d="M1096.207,996.558l-.631-2.385,7.517-1.994-1.963-10,2.418-.476,2.187,11.129a1.233,1.233,0,0,1-.893,1.43Z" transform="translate(-1095.576 -981.708)"/></g><g transform="translate(0 38.569)"><path d="M462.565,974.958h0a1.233,1.233,0,0,1-1.195-.928L451.6,935.722a43.236,43.236,0,0,1-11.857,7.347c-4.451,1.858-9.586,5.248-10.655,9.192a34.8,34.8,0,0,0-1.154,7.111l-.732,14.415-2.462-.125.732-14.423a37.181,37.181,0,0,1,1.236-7.623c1.638-6.045,9.665-9.812,12.086-10.822a38.582,38.582,0,0,0,12.568-8.255,1.233,1.233,0,0,1,2.105.527l9.1,35.672,9.1-35.672a1.233,1.233,0,0,1,2.1-.529,38.864,38.864,0,0,0,12.57,8.256c2.421,1.01,10.448,4.777,12.086,10.822a37.189,37.189,0,0,1,1.236,7.615l.732,14.431-2.461.125-.732-14.423a34.811,34.811,0,0,0-1.154-7.1c-1.069-3.944-6.2-7.334-10.655-9.192a43.234,43.234,0,0,1-11.857-7.347l-9.776,38.307A1.233,1.233,0,0,1,462.565,974.958Z" transform="translate(-424.737 -932.137)"/></g><g transform="translate(13.271 47.478)"><path d="M628.665,1080.684a21.289,21.289,0,0,1,.308-12.13l2.307.872a19.131,19.131,0,0,0-.236,10.616Z" transform="translate(-627.938 -1068.554)"/></g><g transform="translate(10.126 57.692)"><path d="M581.032,1238.962l-1.156-6.683a6.248,6.248,0,0,1,12.3-2.2l1.159,6.692-2.433.42-1.156-6.684a3.78,3.78,0,0,0-7.44,1.342l1.158,6.691Z" transform="translate(-579.777 -1224.938)"/></g><g transform="translate(56.715 46.245)"><path d="M1295.8,1064.243l-2.38-.642a23.285,23.285,0,0,0-.294-13.053l2.307-.875A25.566,25.566,0,0,1,1295.8,1064.243Z" transform="translate(-1293.129 -1049.673)"/></g><g transform="translate(52.611 58.746)"><path d="M1235.124,1250.747a4.835,4.835,0,1,1,4.836-4.836A4.84,4.84,0,0,1,1235.124,1250.747Zm0-7.2a2.369,2.369,0,1,0,2.37,2.369A2.371,2.371,0,0,0,1235.124,1243.542Z" transform="translate(-1230.29 -1241.076)"/></g><g transform="translate(24.102 7.095)"><path d="M802.432,460.744a19.255,19.255,0,0,1-8.661-2.209l1.211-2.147c.055.029,5.477,3.011,10.829,1.414,3.131-.933,5.684-3.259,7.589-6.914a1.22,1.22,0,0,1,1.269-.648,1.237,1.237,0,0,1,1.036.984c.145.736.792,2.782,2.038,3.4a2.5,2.5,0,0,0,2.264-.226l1.1,2.209a4.835,4.835,0,0,1-4.463.225,5.76,5.76,0,0,1-2.421-2.52,13.777,13.777,0,0,1-11.789,6.437Z" transform="translate(-793.771 -450.225)"/></g><g transform="translate(26.359 33.864)"><rect width="5.841" height="2.464" transform="matrix(0.306, -0.952, 0.952, 0.306, 0, 5.561)"/></g><g transform="translate(45.104 33.851)"><rect width="2.467" height="5.861" transform="translate(0 0.78) rotate(-18.422)"/></g><g transform="translate(50.051 74.496)"><path d="M1204.432,1487.888h-2.466v-3.194h-8.411v3.194h-2.466v-4.427a1.233,1.233,0,0,1,1.233-1.233H1203.2a1.233,1.233,0,0,1,1.233,1.233Z" transform="translate(-1191.089 -1482.227)"/></g><g transform="translate(9.422 69.482)"><path d="M572.7,1412.853a3.7,3.7,0,1,1,3.7-3.7A3.7,3.7,0,0,1,572.7,1412.853Zm0-4.929a1.231,1.231,0,1,0,1.231,1.231A1.234,1.234,0,0,0,572.7,1407.924Z" transform="translate(-569.002 -1405.458)"/></g><g transform="translate(19.198 68.006)"><path d="M722.385,1390.265a3.7,3.7,0,1,1,3.7-3.7A3.7,3.7,0,0,1,722.385,1390.265Zm0-4.929a1.231,1.231,0,1,0,1.231,1.231A1.232,1.232,0,0,0,722.385,1385.336Z" transform="translate(-718.688 -1382.87)"/></g></g></g></g></svg>