<svg xmlns="http://www.w3.org/2000/svg" width="80.48" height="78.881" viewBox="0 0 80.48 78.881"><g transform="translate(-27.457 -33.356)"><path d="M46.713,58.54A165.838,165.838,0,0,1,49.989,40a3.351,3.351,0,0,1,5.636-1.548A134.262,134.262,0,0,1,67.067,52.83c2.327,3.266,24.357.512,24.357.512A3.01,3.01,0,0,1,94.3,57.42L85.02,75.853a3.309,3.309,0,0,0,.363,3.053L97.689,94.734a3.33,3.33,0,0,1-3.49,5.134l-20.92-4.547a3.33,3.33,0,0,0-2.893.747L52.967,111.214a3.319,3.319,0,0,1-5.486-2.882l2.135-18.86a3.33,3.33,0,0,0-2.113-3.4l-17.75-7.162a3.319,3.319,0,0,1-.768-5.742L45.41,60.8a3.4,3.4,0,0,0,1.3-2.263Z" transform="translate(0 0.199)" fill="#f58029"/><path d="M50.961,55.6a165.55,165.55,0,0,1,3.277-18.529,3.341,3.341,0,0,1,5.636-1.558A135.331,135.331,0,0,1,71.315,49.891c2.337,3.277,24.357.523,24.357.523a3,3,0,0,1,2.871,4.067L89.268,72.913a3.362,3.362,0,0,0,.374,3.063l12.3,15.818A3.33,3.33,0,0,1,98.49,96.94L77.527,92.393a3.287,3.287,0,0,0-2.882.736L57.226,108.275a3.33,3.33,0,0,1-5.5-2.871l2.135-18.86a3.319,3.319,0,0,0-2.113-3.48L34,75.977a3.33,3.33,0,0,1-.768-5.721L49.659,57.864a3.4,3.4,0,0,0,1.3-2.263Z" transform="translate(0.288)" fill="none" stroke="#231f20" stroke-linecap="round" stroke-linejoin="round" stroke-width="2.25"/><circle cx="4.59" cy="4.59" r="4.59" transform="translate(65.594 67.182)" fill="#231f20"/><circle cx="1.302" cy="1.302" r="1.302" transform="translate(79.598 62.56)" fill="#231f20"/><circle cx="1.302" cy="1.302" r="1.302" transform="translate(85.831 57.821)" fill="#231f20"/><circle cx="1.302" cy="1.302" r="1.302" transform="translate(63.94 56.231)" fill="#231f20"/><circle cx="1.302" cy="1.302" r="1.302" transform="translate(61.698 48.727)" fill="#231f20"/><circle cx="1.302" cy="1.302" r="1.302" transform="translate(53.811 70.085)" fill="#231f20"/><circle cx="1.302" cy="1.302" r="1.302" transform="translate(45.997 69.551)" fill="#231f20"/><circle cx="1.302" cy="1.302" r="1.302" transform="translate(63.406 84.516)" fill="#231f20"/><circle cx="1.302" cy="1.302" r="1.302" transform="translate(60.247 91.677)" fill="#231f20"/><circle cx="1.302" cy="1.302" r="1.302" transform="translate(80.751 79.766)" fill="#231f20"/><circle cx="1.302" cy="1.302" r="1.302" transform="translate(86.696 84.857)" fill="#231f20"/><path d="M86.61,44.018a10.962,10.962,0,0,0,3.2.694,3.714,3.714,0,0,0,2.957-1.217,2.273,2.273,0,0,0-.064-3,1.665,1.665,0,0,0-2.647.694" transform="translate(3.971 0.376)" fill="none" stroke="#231f20" stroke-linecap="round" stroke-linejoin="round" stroke-width="2.25"/><path d="M98.12,58.651a11.089,11.089,0,0,1,1.163-3.085A3.682,3.682,0,0,1,101.9,53.73" transform="translate(4.746 1.295)" fill="none" stroke="#231f20" stroke-linecap="round" stroke-linejoin="round" stroke-width="2.25"/><path d="M35.955,83.2a11,11,0,0,0-2.273-2.391,3.661,3.661,0,0,0-3.117-.672,2.263,2.263,0,0,0-1.644,2.508,1.654,1.654,0,0,0,2.562.929" transform="translate(0.084 3.066)" fill="none" stroke="#231f20" stroke-linecap="round" stroke-linejoin="round" stroke-width="2.25"/><path d="M34.141,60.45a11,11,0,0,1-2.273,2.391,3.725,3.725,0,0,1-3.127.662" transform="translate(0.073 1.747)" fill="none" stroke="#231f20" stroke-linecap="round" stroke-linejoin="round" stroke-width="2.25"/></g></svg>